<?xml version="1.0" encoding="UTF-8"?>
<!DOCTYPE svg PUBLIC "-//W3C//DTD SVG 1.1//EN" "http://www.w3.org/Graphics/SVG/1.1/DTD/svg11.dtd">
<!-- Creator: CorelDRAW X7 -->
<svg xmlns="http://www.w3.org/2000/svg" xml:space="preserve" width="67.7332mm" height="67.7332mm" version="1.1" style="shape-rendering:geometricPrecision; text-rendering:geometricPrecision; image-rendering:optimizeQuality; fill-rule:evenodd; clip-rule:evenodd"
viewBox="0 0 6773 6773"
 xmlns:xlink="http://www.w3.org/1999/xlink">
 <defs>
  <style type="text/css">
   <![CDATA[
    .fil0 {fill:black}
    .fil1 {fill:#FEFEFE}
   ]]>
  </style>
 </defs>
 <g id="Layer_x0020_1">
  <metadata id="CorelCorpID_0Corel-Layer"/>
  <g id="_1595614619648">
   <circle class="fil0" cx="3465" cy="3375" r="2540"/>
   <path class="fil1" d="M3287 5261l694 0 0 -1886 487 0c46,0 53,-258 58,-308 12,-104 31,-233 31,-337l-576 0 0 -416c0,-125 105,-179 228,-179l348 0 0 -645 -40 0c-465,0 -821,-44 -1064,196 -92,91 -160,283 -166,459 -3,93 -10,199 -10,308 0,57 22,277 -30,277l-447 0 0 645 477 0 10 1886z"/>
  </g>
 </g>
</svg>
