<?xml version="1.0" encoding="UTF-8"?>
<!DOCTYPE svg PUBLIC "-//W3C//DTD SVG 1.1//EN" "http://www.w3.org/Graphics/SVG/1.1/DTD/svg11.dtd">
<!-- Creator: CorelDRAW X7 -->
<svg xmlns="http://www.w3.org/2000/svg" xml:space="preserve" width="215.9mm" height="279.4mm" version="1.1" style="shape-rendering:geometricPrecision; text-rendering:geometricPrecision; image-rendering:optimizeQuality; fill-rule:evenodd; clip-rule:evenodd"
viewBox="0 0 21590 27940"
 xmlns:xlink="http://www.w3.org/1999/xlink">
 <defs>
  <style type="text/css">
   <![CDATA[
    .fil2 {fill:#FEFEFE}
    .fil0 {fill:#BCBDBD}
    .fil1 {fill:#1C1C1D}
   ]]>
  </style>
 </defs>
 <g id="Слой_x0020_1">
  <metadata id="CorelCorpID_0Corel-Layer"/>
  <path class="fil0" d="M16499 27940l-15890 0c-330,0 -609,-271 -609,-601l0 -3868c0,-330 279,-611 609,-611l15890 0c330,0 575,281 575,611l0 3868c0,330 -253,601 -583,601l8 0z"/>
  <path class="fil1" d="M16985 27339c0,268 -217,485 -486,485l-15890 0c-268,0 -486,-217 -486,-485l0 -3868c0,-268 218,-486 486,-486l15890 0c269,0 485,218 485,486l0 3868 1 0z"/>
  <path class="fil2" d="M3826 25378c-4,-408 334,-607 349,-616 -191,-279 -488,-318 -592,-321 -249,-26 -491,150 -618,150 -129,0 -325,-147 -535,-143 -271,5 -525,162 -664,405 -287,497 -73,1227 202,1629 138,196 299,416 509,408 206,-8 283,-131 531,-131 246,0 318,131 533,126 221,-3 360,-197 492,-396 159,-225 223,-447 226,-459 -5,-1 -429,-163 -433,-652z"/>
  <path class="fil2" d="M3420 24177c111,-138 187,-326 166,-518 -161,8 -361,111 -476,247 -102,119 -194,315 -170,498 180,14 365,-90 480,-227z"/>
  <path class="fil2" d="M6311 26159l-142 -440c-15,-45 -44,-151 -85,-317l-5 0c-17,71 -44,177 -80,317l-140 440 452 0zm493 703l-288 0 -157 -495 -548 0 -150 495 -280 0 543 -1685 335 0 545 1685z"/>
  <path class="fil2" d="M7924 26249c0,-118 -27,-216 -80,-292 -58,-80 -137,-120 -235,-120 -67,0 -127,22 -181,66 -54,44 -90,102 -107,174 -8,33 -12,61 -12,82l0 203c0,88 27,163 81,224 54,61 125,91 212,91 101,0 180,-39 237,-118 57,-78 85,-181 85,-310zm275 -10c0,207 -56,370 -167,490 -100,107 -225,160 -373,160 -160,0 -275,-57 -345,-172l-5 0 0 640 -270 0 0 -1310c0,-130 -3,-263 -10,-400l237 0 15 192 5 0c91,-145 227,-217 411,-217 143,0 263,56 358,170 96,113 144,262 144,447z"/>
  <path class="fil2" d="M9322 26249c0,-118 -27,-216 -80,-292 -59,-80 -137,-120 -235,-120 -67,0 -127,22 -182,66 -54,44 -89,102 -106,174 -8,33 -12,61 -12,82l0 203c0,88 27,163 81,224 54,61 125,91 211,91 102,0 181,-39 238,-118 56,-78 85,-181 85,-310zm275 -10c0,207 -56,370 -168,490 -100,107 -224,160 -372,160 -160,0 -275,-57 -345,-172l-5 0 0 640 -270 0 0 -1310c0,-130 -4,-263 -10,-400l237 0 15 192 5 0c90,-145 227,-217 410,-217 144,0 263,56 359,170 96,113 144,262 144,447z"/>
  <path class="fil2" d="M11160 26389c0,144 -50,260 -150,350 -110,99 -263,148 -459,148 -181,0 -327,-35 -437,-105l63 -225c118,72 248,107 390,107 102,0 181,-23 238,-68 56,-46 85,-108 85,-185 0,-68 -24,-126 -70,-172 -47,-47 -125,-91 -233,-131 -295,-110 -442,-271 -442,-483 0,-139 51,-252 155,-341 103,-88 240,-132 412,-132 154,0 281,26 383,80l-68 220c-95,-52 -202,-78 -322,-78 -95,0 -170,24 -223,70 -45,42 -67,93 -67,153 0,66 25,121 77,165 45,40 127,83 245,130 145,58 252,127 320,205 69,78 103,176 103,292z"/>
  <path class="fil2" d="M12052 25849l-297 0 0 590c0,150 52,225 157,225 49,0 89,-4 120,-12l8 205c-53,20 -123,30 -210,30 -107,0 -190,-33 -250,-97 -60,-66 -90,-175 -90,-328l0 -613 -178 0 0 -202 178 0 0 -223 265 -80 0 303 297 0 0 202z"/>
  <path class="fil2" d="M13115 26253c0,-112 -24,-208 -72,-288 -57,-97 -138,-146 -243,-146 -108,0 -191,49 -247,146 -49,80 -73,178 -73,293 0,112 24,208 73,288 58,97 140,146 245,146 103,0 184,-49 242,-148 50,-82 75,-179 75,-291zm280 -9c0,187 -53,340 -160,460 -111,124 -260,185 -445,185 -178,0 -320,-59 -426,-177 -106,-118 -159,-268 -159,-448 0,-188 55,-342 164,-462 109,-120 256,-180 441,-180 178,0 322,59 430,177 104,115 155,264 155,445z"/>
  <path class="fil2" d="M14273 25884c-27,-5 -55,-7 -85,-7 -95,0 -169,36 -220,107 -45,64 -68,144 -68,240l0 638 -270 0 3 -833c0,-140 -4,-267 -10,-382l235 0 10 232 7 0c29,-80 74,-144 135,-192 60,-44 125,-65 195,-65 25,0 48,1 68,5l0 257z"/>
  <path class="fil2" d="M15223 26127c2,-80 -16,-149 -52,-208 -47,-75 -119,-112 -216,-112 -88,0 -160,36 -215,110 -45,58 -71,128 -79,210l562 0zm258 70c0,48 -4,89 -10,122l-810 0c3,120 42,212 117,275 68,57 157,85 265,85 120,0 229,-19 328,-57l42 187c-115,51 -251,75 -407,75 -189,0 -337,-55 -444,-166 -108,-111 -162,-259 -162,-446 0,-183 50,-336 151,-458 104,-130 246,-195 424,-195 176,0 308,65 398,195 72,104 108,231 108,383z"/>
  <path class="fil2" d="M6082 24143c0,-96 -26,-170 -77,-222 -51,-52 -126,-77 -224,-77 -42,0 -77,3 -107,8l0 619c16,3 46,4 90,4 101,0 180,-28 235,-85 55,-56 83,-138 83,-247zm140 -3c0,149 -45,261 -134,336 -83,70 -200,105 -352,105 -76,0 -141,-4 -195,-10l0 -815c71,-11 147,-17 229,-17 145,0 254,32 328,95 83,71 124,173 124,306z"/>
  <path class="fil2" d="M6826 24274c0,-55 -12,-102 -35,-141 -28,-48 -68,-72 -119,-72 -54,0 -94,24 -122,72 -24,39 -36,87 -36,144 0,55 12,102 36,141 29,48 69,72 120,72 51,0 91,-24 119,-73 25,-40 37,-88 37,-143zm138 -4c0,92 -26,167 -79,226 -55,61 -127,91 -218,91 -88,0 -158,-29 -210,-87 -52,-58 -78,-132 -78,-220 0,-93 27,-168 81,-227 53,-59 125,-89 216,-89 88,0 158,29 212,87 50,57 76,130 76,219z"/>
  <path class="fil2" d="M7959 23976l-187 597 -121 0 -78 -259c-19,-65 -35,-129 -48,-193l-2 0c-12,66 -28,130 -48,193l-82 259 -123 0 -176 -597 136 0 68 284c16,67 30,131 41,192l2 0c10,-50 26,-114 49,-191l85 -285 108 0 81 279c20,68 36,134 48,197l4 0c9,-62 22,-127 40,-197l73 -279 130 0z"/>
  <path class="fil2" d="M8647 24573l-133 0 0 -342c0,-105 -40,-158 -120,-158 -39,0 -71,15 -96,44 -24,29 -37,63 -37,102l0 354 -132 0 0 -426c0,-52 -2,-109 -5,-171l116 0 6 94 4 0c16,-29 39,-53 69,-72 36,-23 76,-34 120,-34 56,0 102,18 139,54 46,44 69,110 69,198l0 357z"/>
  <polygon class="fil2" points="9013,24573 8880,24573 8880,23702 9013,23702 "/>
  <path class="fil2" d="M9657 24274c0,-55 -12,-102 -36,-141 -28,-48 -68,-72 -119,-72 -53,0 -94,24 -122,72 -23,39 -35,87 -35,144 0,55 12,102 35,141 29,48 69,72 121,72 50,0 90,-24 119,-73 24,-40 37,-88 37,-143zm137 -4c0,92 -26,167 -78,226 -55,61 -128,91 -219,91 -88,0 -158,-29 -209,-87 -52,-58 -78,-132 -78,-220 0,-93 26,-168 80,-227 54,-59 126,-89 217,-89 88,0 158,29 211,87 51,57 76,130 76,219z"/>
  <path class="fil2" d="M10299 24368l0 -92c-146,-2 -220,38 -220,120 0,32 9,55 26,71 17,15 39,23 65,23 29,0 56,-9 81,-28 25,-18 40,-42 46,-70 1,-7 2,-15 2,-24zm138 205l-119 0 -10 -68 -4 0c-41,54 -99,82 -174,82 -57,0 -102,-18 -137,-54 -31,-33 -46,-73 -46,-122 0,-73 30,-128 91,-167 61,-38 147,-57 258,-56l0 -11c0,-79 -42,-118 -124,-118 -59,0 -111,14 -156,44l-27 -87c55,-35 124,-52 205,-52 156,0 234,82 234,247l0 220c0,60 3,107 9,142z"/>
  <path class="fil2" d="M11053 24322l0 -100c0,-17 -1,-31 -3,-42 -8,-32 -24,-58 -48,-80 -25,-22 -55,-33 -89,-33 -50,0 -88,20 -117,59 -28,40 -42,90 -42,151 0,59 13,107 40,144 29,39 68,59 116,59 44,0 79,-16 105,-49 26,-30 38,-67 38,-109zm138 251l-118 0 -6 -95 -4 0c-37,72 -101,109 -191,109 -72,0 -132,-28 -180,-85 -47,-56 -71,-130 -71,-220 0,-96 26,-175 77,-234 50,-56 112,-84 185,-84 80,0 136,27 168,81l2 0 0 -343 133 0 0 710c0,59 2,112 5,161z"/>
  <path class="fil2" d="M12189 24274c0,-55 -12,-102 -36,-141 -28,-48 -68,-72 -119,-72 -54,0 -94,24 -122,72 -24,39 -36,87 -36,144 0,55 12,102 36,141 29,48 69,72 120,72 51,0 91,-24 120,-73 24,-40 37,-88 37,-143zm137 -4c0,92 -26,167 -79,226 -55,61 -127,91 -218,91 -88,0 -158,-29 -210,-87 -52,-58 -78,-132 -78,-220 0,-93 27,-168 81,-227 53,-59 126,-89 217,-89 87,0 158,29 211,87 51,57 76,130 76,219z"/>
  <path class="fil2" d="M13040 24573l-133 0 0 -342c0,-105 -40,-158 -120,-158 -40,0 -72,15 -96,44 -25,29 -37,63 -37,102l0 354 -133 0 0 -426c0,-52 -1,-109 -4,-171l116 0 6 94 4 0c15,-29 38,-53 69,-72 36,-23 76,-34 120,-34 56,0 102,18 139,54 46,44 69,110 69,198l0 357z"/>
  <path class="fil2" d="M13933 24076l-146 0 0 290c0,74 26,110 77,110 24,0 44,-2 59,-6l4 101c-27,10 -61,15 -103,15 -53,0 -94,-16 -123,-48 -30,-32 -44,-86 -44,-161l0 -301 -88 0 0 -100 88 0 0 -109 130 -39 0 148 146 0 0 100z"/>
  <path class="fil2" d="M14636 24573l-133 0 0 -339c0,-107 -40,-161 -120,-161 -62,0 -104,31 -127,94 -4,13 -6,29 -6,47l0 359 -133 0 0 -871 133 0 0 360 2 0c42,-65 102,-98 180,-98 54,0 100,18 136,54 45,45 68,112 68,200l0 355z"/>
  <path class="fil2" d="M15234 24212c1,-39 -8,-73 -26,-102 -23,-37 -58,-55 -106,-55 -43,0 -78,18 -105,54 -22,29 -35,63 -40,103l277 0zm126 35c0,23 -1,43 -5,60l-398 0c2,59 21,104 58,135 34,28 77,42 130,42 59,0 113,-10 161,-29l21 93c-56,24 -123,36 -200,36 -93,0 -165,-27 -218,-81 -53,-55 -79,-128 -79,-220 0,-90 24,-165 73,-224 52,-64 121,-96 209,-96 86,0 151,32 195,96 36,50 53,113 53,188z"/>
 </g>
</svg>
