<?xml version="1.0" encoding="utf-8"?>
<!-- Generator: Adobe Illustrator 24.0.2, SVG Export Plug-In . SVG Version: 6.00 Build 0)  -->
<svg version="1.1"
	 id="svg2" inkscape:version="0.91 r13725" sodipodi:docname="google-play-badge.svg" xmlns:cc="http://creativecommons.org/ns#" xmlns:dc="http://purl.org/dc/elements/1.1/" xmlns:inkscape="http://www.inkscape.org/namespaces/inkscape" xmlns:rdf="http://www.w3.org/1999/02/22-rdf-syntax-ns#" xmlns:sodipodi="http://sodipodi.sourceforge.net/DTD/sodipodi-0.dtd" xmlns:svg="http://www.w3.org/2000/svg"
	 xmlns="http://www.w3.org/2000/svg" xmlns:xlink="http://www.w3.org/1999/xlink" x="0px" y="0px"
	 viewBox="-353.087 -277.628 841.89 595.275" enable-background="new -353.087 -277.628 841.89 595.275" xml:space="preserve">
<pattern  x="-527.642" y="440.51" width="124" height="48" patternUnits="userSpaceOnUse" id="pattern134" viewBox="0 -48 124 48" overflow="visible">
	<g>
		<rect y="-48" fill="none" width="124" height="48"/>
		<g id="g136_1_">
		</g>
		<g id="g138_1_">
			<g>
				<defs>
					<rect id="SVGID_1_" y="-48" width="124" height="48"/>
				</defs>
				<clipPath id="SVGID_2_">
					<use xlink:href="#SVGID_1_"  overflow="visible"/>
				</clipPath>
				<g id="g140_1_" clip-path="url(#SVGID_2_)">
					<g id="g142_1_">
						<path id="path144_1_" d="M29.625-20.695l-11.613,6.597c-0.649,0.371-1.231,0.344-1.606,0.008l-0.058,0.063l0.058,0.058
							c0.375,0.336,0.957,0.36,1.606-0.011l11.687-6.641L29.625-20.695z"/>
					</g>
				</g>
			</g>
		</g>
	</g>
</pattern>
<pattern  x="-527.642" y="440.51" width="124" height="48" patternUnits="userSpaceOnUse" id="pattern182" viewBox="0 -48 124 48" overflow="visible">
	<g>
		<rect y="-48" fill="none" width="124" height="48"/>
		<g id="g184_1_">
		</g>
		<g id="g186_1_">
			<g>
				<defs>
					<rect id="SVGID_3_" y="-48" width="124" height="48"/>
				</defs>
				<clipPath id="SVGID_4_">
					<use xlink:href="#SVGID_3_"  overflow="visible"/>
				</clipPath>
				<g id="g188_1_" clip-path="url(#SVGID_4_)">
					<g id="g190_1_">
						<path id="path192_1_" d="M16.348-14.145c-0.235-0.246-0.371-0.628-0.371-1.125v0.118c0,0.496,0.136,0.879,0.371,1.125
							l0.058-0.063L16.348-14.145z"/>
					</g>
				</g>
			</g>
		</g>
	</g>
</pattern>
<pattern  x="-527.642" y="440.51" width="124" height="48" patternUnits="userSpaceOnUse" id="pattern230" viewBox="0 -48 124 48" overflow="visible">
	<g>
		<rect y="-48" fill="none" width="124" height="48"/>
		<g id="g232_1_">
		</g>
		<g id="g234_1_">
			<g>
				<defs>
					<rect id="SVGID_5_" y="-48" width="124" height="48"/>
				</defs>
				<clipPath id="SVGID_6_">
					<use xlink:href="#SVGID_5_"  overflow="visible"/>
				</clipPath>
				<g id="g236_1_" clip-path="url(#SVGID_6_)">
					<g id="g238_1_">
						<path id="path240_1_" d="M33.613-22.961l-3.988,2.266l0.074,0.074l3.914-2.223c0.559-0.316,0.836-0.734,0.836-1.156
							C34.402-23.621,34.117-23.25,33.613-22.961z"/>
					</g>
				</g>
			</g>
		</g>
	</g>
</pattern>
<sodipodi:namedview  bordercolor="#666666" borderopacity="1" gridtolerance="10" guidetolerance="10" id="namedview4" inkscape:current-layer="g10" inkscape:cx="93.965168" inkscape:cy="29.61582" inkscape:pageopacity="0" inkscape:pageshadow="2" inkscape:window-height="705" inkscape:window-maximized="1" inkscape:window-width="1366" inkscape:window-x="-8" inkscape:window-y="-8" inkscape:zoom="7.6276974" objecttolerance="10" pagecolor="#ffffff" showgrid="false">
	</sodipodi:namedview>
<g id="g10" transform="matrix(1.25,0,0,-1.25,-9.4247625,49.85025)" inkscape:groupmode="layer" inkscape:label="google-play-badge">
	<g id="g12" transform="matrix(1.0023923,0,0,0.99072975,-0.29664807,0)">
		<path id="path14" inkscape:connector-curvature="0" d="M155.267,48.445H-199.29c-7.795,0-14.181,6.386-14.181,14.183v85.093
			c0,7.798,6.386,14.183,14.181,14.183h354.557c7.795,0,14.182-6.386,14.182-14.183V62.628
			C169.449,54.831,163.063,48.445,155.267,48.445z"/>
		<path id="path16" inkscape:connector-curvature="0" fill="#A6A6A6" d="M155.267,159.631c6.566,0,11.907-5.343,11.907-11.91V62.628
			c0-6.567-5.342-11.91-11.907-11.91H-199.29c-6.565,0-11.907,5.343-11.907,11.91v85.093c0,6.568,5.342,11.91,11.907,11.91H155.267
			 M155.267,161.904H-199.29c-7.795,0-14.181-6.386-14.181-14.183V62.628c0-7.797,6.386-14.183,14.181-14.183h354.557
			c7.795,0,14.182,6.386,14.182,14.183v85.093C169.449,155.518,163.063,161.904,155.267,161.904z"/>
		<g id="g18" transform="matrix(1,0,0,-1,0,48)">
			
				<path id="path20" inkscape:connector-curvature="0" fill="#FFFFFF" stroke="#FFFFFF" stroke-width="0.16" stroke-miterlimit="10" d="
				M-78.974-84.846c0,2.368-0.71,4.264-2.106,5.678c-1.609,1.678-3.701,2.522-6.262,2.522c-2.451,0-4.543-0.858-6.259-2.55
				c-1.719-1.717-2.578-3.822-2.578-6.341c0-2.522,0.859-4.627,2.578-6.33c1.716-1.705,3.808-2.564,6.259-2.564
				c1.219,0,2.382,0.252,3.493,0.721c1.105,0.47,2.006,1.107,2.658,1.896l-1.481,1.496c-1.138-1.345-2.689-2.008-4.67-2.008
				c-1.788,0-3.338,0.627-4.653,1.885c-1.302,1.261-1.954,2.896-1.954,4.904c0,2.005,0.652,3.654,1.954,4.915
				c1.315,1.247,2.865,1.884,4.653,1.884c1.896,0,3.493-0.638,4.75-1.898c0.829-0.833,1.301-1.982,1.426-3.45h-6.176v-2.047h8.24
				C-79.004-85.691-78.974-85.263-78.974-84.846z"/>
		</g>
		<g id="g22" transform="matrix(1,0,0,-1,0,48)">
			
				<path id="path24" inkscape:connector-curvature="0" fill="#FFFFFF" stroke="#FFFFFF" stroke-width="0.16" stroke-miterlimit="10" d="
				M-65.903-91.954h-7.74v5.391h6.98v2.049h-6.98v5.39h7.74v2.089h-9.929v-17.005h9.929V-91.954z"/>
		</g>
		<g id="g26" transform="matrix(1,0,0,-1,0,48)">
			
				<path id="path28" inkscape:connector-curvature="0" fill="#FFFFFF" stroke="#FFFFFF" stroke-width="0.16" stroke-miterlimit="10" d="
				M-56.676-77.035h-2.191v-14.919h-4.748v-2.085h11.689v2.085h-4.75V-77.035z"/>
		</g>
		<g id="g30" transform="matrix(1,0,0,-1,0,48)">
			
				<path id="path32" inkscape:connector-curvature="0" fill="#FFFFFF" stroke="#FFFFFF" stroke-width="0.16" stroke-miterlimit="10" d="
				M-43.464-77.035v-17.005h2.185v17.005H-43.464z"/>
		</g>
		<g id="g34" transform="matrix(1,0,0,-1,0,48)">
			
				<path id="path36" inkscape:connector-curvature="0" fill="#FFFFFF" stroke="#FFFFFF" stroke-width="0.16" stroke-miterlimit="10" d="
				M-31.582-77.035h-2.172v-14.919h-4.767v-2.085h11.706v2.085h-4.767V-77.035z"/>
		</g>
		<g id="g38" transform="matrix(1,0,0,-1,0,48)">
			
				<path id="path40" inkscape:connector-curvature="0" fill="#FFFFFF" stroke="#FFFFFF" stroke-width="0.16" stroke-miterlimit="10" d="
				M-4.684-79.224c-1.677,1.719-3.756,2.578-6.234,2.578c-2.492,0-4.57-0.858-6.248-2.578c-1.672-1.717-2.506-3.822-2.506-6.313
				c0-2.494,0.835-4.6,2.506-6.316c1.677-1.719,3.755-2.577,6.248-2.577c2.465,0,4.543,0.858,6.22,2.592
				c1.686,1.731,2.521,3.822,2.521,6.302C-2.177-83.046-3.012-80.941-4.684-79.224z M-15.544-80.65
				c1.263,1.275,2.796,1.912,4.626,1.912c1.816,0,3.366-0.638,4.612-1.912c1.26-1.272,1.899-2.908,1.899-4.887
				c0-1.982-0.639-3.618-1.899-4.89c-1.246-1.272-2.796-1.912-4.612-1.912c-1.829,0-3.363,0.64-4.626,1.912
				c-1.26,1.272-1.899,2.908-1.899,4.89C-17.442-83.558-16.804-81.922-15.544-80.65z"/>
		</g>
		<g id="g42" transform="matrix(1,0,0,-1,0,48)">
			
				<path id="path44" inkscape:connector-curvature="0" fill="#FFFFFF" stroke="#FFFFFF" stroke-width="0.16" stroke-miterlimit="10" d="
				M0.896-77.035v-17.005h2.661l8.268,13.224h0.094l-0.094-3.271v-9.953h2.185v17.005h-2.282L3.07-90.914H2.974l0.097,3.282v10.597
				H0.896z"/>
		</g>
		<path id="path46" inkscape:connector-curvature="0" fill="#FFFFFF" d="M-20.212,100.202c-6.662,0-12.103-5.069-12.103-12.064
			c0-6.939,5.441-12.062,12.103-12.062c6.676,0,12.12,5.123,12.12,12.062C-8.091,95.133-13.535,100.202-20.212,100.202z
			 M-20.212,80.826c-3.655,0-6.8,3.017-6.8,7.312c0,4.35,3.145,7.314,6.8,7.314c3.656,0,6.815-2.963,6.815-7.314
			C-13.397,83.843-16.555,80.826-20.212,80.826z M-46.62,100.202c-6.676,0-12.106-5.069-12.106-12.064
			c0-6.939,5.43-12.062,12.106-12.062c6.671,0,12.103,5.123,12.103,12.062C-34.517,95.133-39.949,100.202-46.62,100.202z
			 M-46.62,80.826c-3.659,0-6.815,3.017-6.815,7.312c0,4.35,3.156,7.314,6.815,7.314c3.656,0,6.8-2.963,6.8-7.314
			C-39.82,83.843-42.965,80.826-46.62,80.826z M-78.048,96.506v-5.128h12.242c-0.359-2.866-1.316-4.971-2.783-6.439
			c-1.787-1.773-4.571-3.741-9.459-3.741c-7.535,0-13.435,6.081-13.435,13.615c0,7.535,5.9,13.616,13.435,13.616
			c4.073,0,7.039-1.593,9.224-3.657l3.615,3.612c-3.062,2.922-7.132,5.167-12.839,5.167c-10.332,0-19.015-8.408-19.015-18.739
			c0-10.33,8.683-18.738,19.015-18.738c5.582,0,9.777,1.829,13.076,5.262c3.377,3.377,4.429,8.13,4.429,11.966
			c0,1.191-0.099,2.287-0.276,3.202H-78.048z M50.465,92.53c-0.998,2.698-4.071,7.672-10.333,7.672
			c-6.206,0-11.37-4.887-11.37-12.064c0-6.758,5.112-12.062,11.965-12.062c5.543,0,8.741,3.377,10.056,5.346l-4.111,2.74
			c-1.374-2.004-3.242-3.336-5.944-3.336c-2.683,0-4.609,1.23-5.841,3.657l16.135,6.674l-0.558,1.373H50.465z M34.011,88.512
			c-0.138,4.652,3.615,7.034,6.301,7.034c2.106,0,3.894-1.051,4.488-2.558L34.011,88.512L34.011,88.512z M20.896,76.809h5.306
			v35.458h-5.306V76.809z M12.211,97.515h-0.179c-1.191,1.411-3.462,2.687-6.342,2.687c-6.041,0-11.564-5.304-11.564-12.104
			c0-6.76,5.523-12.022,11.564-12.022c2.88,0,5.151,1.286,6.342,2.74h0.179v-1.731c0-4.613-2.464-7.09-6.439-7.09
			c-3.241,0-5.253,2.34-6.082,4.308l-4.612-1.926c1.33-3.199,4.849-7.133,10.694-7.133c6.218,0,11.466,3.657,11.466,12.562v21.662
			h-5.027V97.515z M6.143,80.826c-3.655,0-6.714,3.059-6.714,7.272c0,4.253,3.059,7.353,6.714,7.353
			c3.604,0,6.444-3.101,6.444-7.353C12.587,83.885,9.746,80.826,6.143,80.826z M75.296,112.266H62.609V76.809h5.292v13.435h7.395
			c5.875,0,11.636,4.252,11.636,11.012C86.932,108.014,81.157,112.266,75.296,112.266z M75.434,95.175h-7.533v12.159h7.533
			c3.949,0,6.204-3.28,6.204-6.079C81.638,98.513,79.383,95.175,75.434,95.175z M108.135,100.271c-3.821,0-7.798-1.688-9.431-5.429
			l4.695-1.968c1.009,1.968,2.868,2.605,4.831,2.605c2.747,0,5.529-1.647,5.57-4.559v-0.372c-0.956,0.554-3.006,1.373-5.527,1.373
			c-5.057,0-10.208-2.782-10.208-7.977c0-4.753,4.142-7.812,8.795-7.812c3.559,0,5.524,1.608,6.76,3.475h0.179v-2.739h5.11v13.599
			C118.91,96.754,114.215,100.271,108.135,100.271z M107.497,80.841c-1.73,0-4.142,0.858-4.142,3.003
			c0,2.746,3.007,3.797,5.61,3.797c2.33,0,3.421-0.512,4.835-1.192C113.386,83.167,110.558,80.841,107.497,80.841z M137.524,99.495
			l-6.079-15.372h-0.182l-6.287,15.372h-5.704l9.445-21.481l-5.389-11.949h5.527l14.554,33.43H137.524z M89.839,76.809h5.305v35.458
			h-5.305V76.809z"/>
		<g id="g48">
			
				<linearGradient id="path64_1_" gradientUnits="userSpaceOnUse" x1="-144.3328" y1="99.4208" x2="-203.8372" y2="39.9164" gradientTransform="matrix(1.0024 0 0 -0.9907 -6.9598 171.6423)">
				<stop  offset="0" style="stop-color:#00A0FF"/>
				<stop  offset="0.0066" style="stop-color:#00A1FF"/>
				<stop  offset="0.2601" style="stop-color:#00BEFF"/>
				<stop  offset="0.5122" style="stop-color:#00D2FF"/>
				<stop  offset="0.7604" style="stop-color:#00DFFF"/>
				<stop  offset="1" style="stop-color:#00E3FF"/>
			</linearGradient>
			<path id="path64" inkscape:connector-curvature="0" fill="url(#path64_1_)" d="M-183.873,140.518
				c-0.832-0.872-1.316-2.228-1.316-3.987V73.803c0-1.759,0.484-3.118,1.316-3.99l0.207-0.19l35.15,35.136v0.83l-35.15,35.136
				L-183.873,140.518z"/>
		</g>
		<g id="g66">
			
				<linearGradient id="path78_1_" gradientUnits="userSpaceOnUse" x1="-110.2743" y1="67.0918" x2="-196.0638" y2="67.0918" gradientTransform="matrix(1.0024 0 0 -0.9907 -6.9598 171.6423)">
				<stop  offset="0" style="stop-color:#FFE000"/>
				<stop  offset="0.4087" style="stop-color:#FFBD00"/>
				<stop  offset="0.7754" style="stop-color:#FFA500"/>
				<stop  offset="1" style="stop-color:#FF9C00"/>
			</linearGradient>
			<path id="path78" inkscape:connector-curvature="0" fill="url(#path78_1_)" d="M-136.814,93.042l-11.703,11.717v0.83
				l11.717,11.718l0.262-0.154l13.878-7.895c3.96-2.24,3.96-5.928,0-8.184l-13.878-7.882L-136.814,93.042z"/>
		</g>
		<g id="g80">
			
				<linearGradient id="path88_1_" gradientUnits="userSpaceOnUse" x1="-159.3749" y1="84.4126" x2="-240.0447" y2="3.7428" gradientTransform="matrix(1.0024 0 0 -0.9907 -6.9598 171.6423)">
				<stop  offset="0" style="stop-color:#FF3A44"/>
				<stop  offset="1" style="stop-color:#C31162"/>
			</linearGradient>
			<path id="path88" inkscape:connector-curvature="0" fill="url(#path88_1_)" d="M-136.537,93.193l-11.979,11.981l-35.357-35.36
				c1.315-1.381,3.46-1.549,5.9-0.165L-136.537,93.193"/>
		</g>
		<g id="g90">
			
				<linearGradient id="path104_1_" gradientUnits="userSpaceOnUse" x1="-208.9689" y1="99.9583" x2="-172.9426" y2="63.9324" gradientTransform="matrix(1.0024 0 0 -0.9907 -6.9598 171.6423)">
				<stop  offset="0" style="stop-color:#32A071"/>
				<stop  offset="0.0685" style="stop-color:#2DA771"/>
				<stop  offset="0.4762" style="stop-color:#15CF74"/>
				<stop  offset="0.8009" style="stop-color:#06E775"/>
				<stop  offset="1" style="stop-color:#00F076"/>
			</linearGradient>
			<path id="path104" inkscape:connector-curvature="0" fill="url(#path104_1_)" d="M-136.537,117.153l-41.436,23.547
				c-2.44,1.37-4.584,1.202-5.9-0.182l35.357-35.345L-136.537,117.153z"/>
		</g>
		<g id="g106">
			<g id="g108">
			</g>
			<defs>
				
					<filter id="Adobe_OpacityMaskFilter" filterUnits="userSpaceOnUse" x="-241.835" y="-190.268" width="439.646" height="170.188">
					<feColorMatrix  type="matrix" values="1 0 0 0 0  0 1 0 0 0  0 0 1 0 0  0 0 0 1 0"/>
				</filter>
			</defs>
			<mask maskUnits="userSpaceOnUse" x="-241.835" y="-190.268" width="439.646" height="170.188" id="mask114">
				<g id="g116" filter="url(#Adobe_OpacityMaskFilter)">
					<g>
						<defs>
							<rect id="SVGID_7_" x="-258.502" y="8.997" width="439.647" height="170.186"/>
						</defs>
						<clipPath id="SVGID_8_">
							<use xlink:href="#SVGID_7_"  overflow="visible"/>
						</clipPath>
						<g id="g118">
							<path id="path120" inkscape:connector-curvature="0" clip-path="url(#SVGID_8_)" fill-opacity="0.2" d="M-214.118,162.801
								h350.879V25.379h-350.879V162.801z"/>
						</g>
					</g>
				</g>
			</mask>
			<g id="g122" mask="url(#mask114)">
				<g id="g124">
				</g>
				<g id="g146">
					<g>
						<defs>
							<rect id="SVGID_9_" x="-297.448" y="-0.207" width="550.872" height="210.763"/>
						</defs>
						<clipPath id="SVGID_10_">
							<use xlink:href="#SVGID_9_"  overflow="visible"/>
						</clipPath>
						<g id="g148" clip-path="url(#SVGID_10_)">
							<g id="g150">
								<pattern  id="path152_1_" xlink:href="#pattern134" patternTransform="matrix(4.4425 0 0 -4.3909 25262.4473 -44366.7656)">
								</pattern>
								<path id="path152" inkscape:connector-curvature="0" fill="url(#path152_1_)" d="M-241.835,20.08h439.646v170.188h-439.646
									V20.08z"/>
							</g>
						</g>
					</g>
				</g>
			</g>
		</g>
		<g id="g154">
			<g id="g156">
			</g>
			<defs>
				
					<filter id="Adobe_OpacityMaskFilter_1_" filterUnits="userSpaceOnUse" x="-241.835" y="-190.268" width="439.646" height="170.188">
					<feColorMatrix  type="matrix" values="1 0 0 0 0  0 1 0 0 0  0 0 1 0 0  0 0 0 1 0"/>
				</filter>
			</defs>
			<mask maskUnits="userSpaceOnUse" x="-241.835" y="-190.268" width="439.646" height="170.188" id="mask162">
				<g id="g164" filter="url(#Adobe_OpacityMaskFilter_1_)">
					<g>
						<defs>
							<rect id="SVGID_11_" x="-258.502" y="8.997" width="439.647" height="170.186"/>
						</defs>
						<clipPath id="SVGID_12_">
							<use xlink:href="#SVGID_11_"  overflow="visible"/>
						</clipPath>
						<g id="g166">
							<path id="path168" inkscape:connector-curvature="0" clip-path="url(#SVGID_12_)" fill-opacity="0.12" d="M-214.118,162.801
								h350.879V25.379h-350.879V162.801z"/>
						</g>
					</g>
				</g>
			</mask>
			<g id="g170" mask="url(#mask162)">
				<g id="g172">
				</g>
				<g id="g194">
					<g>
						<defs>
							<rect id="SVGID_13_" x="-297.448" y="-0.207" width="550.872" height="210.763"/>
						</defs>
						<clipPath id="SVGID_14_">
							<use xlink:href="#SVGID_13_"  overflow="visible"/>
						</clipPath>
						<g id="g196" clip-path="url(#SVGID_14_)">
							<g id="g198">
								<pattern  id="path200_1_" xlink:href="#pattern182" patternTransform="matrix(4.4425 0 0 -4.3909 25262.4473 -44366.7656)">
								</pattern>
								<path id="path200" inkscape:connector-curvature="0" fill="url(#path200_1_)" d="M-241.835,20.08h439.646v170.188h-439.646
									V20.08z"/>
							</g>
						</g>
					</g>
				</g>
			</g>
		</g>
		<g id="g202">
			<g id="g204">
			</g>
			<defs>
				
					<filter id="Adobe_OpacityMaskFilter_2_" filterUnits="userSpaceOnUse" x="-241.835" y="-190.268" width="439.646" height="170.188">
					<feColorMatrix  type="matrix" values="1 0 0 0 0  0 1 0 0 0  0 0 1 0 0  0 0 0 1 0"/>
				</filter>
			</defs>
			<mask maskUnits="userSpaceOnUse" x="-241.835" y="-190.268" width="439.646" height="170.188" id="mask210">
				<g id="g212" filter="url(#Adobe_OpacityMaskFilter_2_)">
					<g>
						<defs>
							<rect id="SVGID_15_" x="-258.502" y="8.997" width="439.647" height="170.186"/>
						</defs>
						<clipPath id="SVGID_16_">
							<use xlink:href="#SVGID_15_"  overflow="visible"/>
						</clipPath>
						<g id="g214">
							<path id="path216" inkscape:connector-curvature="0" clip-path="url(#SVGID_16_)" fill-opacity="0.12" d="M-214.118,162.801
								h350.879V25.379h-350.879V162.801z"/>
						</g>
					</g>
				</g>
			</mask>
			<g id="g218" mask="url(#mask210)">
				<g id="g220">
				</g>
				<g id="g242">
					<g>
						<defs>
							<rect id="SVGID_17_" x="-297.448" y="-0.207" width="550.872" height="210.763"/>
						</defs>
						<clipPath id="SVGID_18_">
							<use xlink:href="#SVGID_17_"  overflow="visible"/>
						</clipPath>
						<g id="g244" clip-path="url(#SVGID_18_)">
							<g id="g246">
								<pattern  id="path248_1_" xlink:href="#pattern230" patternTransform="matrix(4.4425 0 0 -4.3909 25262.4473 -44366.7656)">
								</pattern>
								<path id="path248" inkscape:connector-curvature="0" fill="url(#path248_1_)" d="M-241.835,20.08h439.646v170.188h-439.646
									V20.08z"/>
							</g>
						</g>
					</g>
				</g>
			</g>
		</g>
		<g id="g250">
			<g id="g252">
			</g>
			<defs>
				
					<filter id="Adobe_OpacityMaskFilter_3_" filterUnits="userSpaceOnUse" x="-241.835" y="-190.268" width="439.646" height="170.188">
					<feColorMatrix  type="matrix" values="1 0 0 0 0  0 1 0 0 0  0 0 1 0 0  0 0 0 1 0"/>
				</filter>
			</defs>
			<mask maskUnits="userSpaceOnUse" x="-241.835" y="-190.268" width="439.646" height="170.188" id="mask258">
				<g id="g260" filter="url(#Adobe_OpacityMaskFilter_3_)">
					<g>
						<defs>
							<rect id="SVGID_19_" x="-258.502" y="8.997" width="439.647" height="170.186"/>
						</defs>
						<clipPath id="SVGID_20_">
							<use xlink:href="#SVGID_19_"  overflow="visible"/>
						</clipPath>
						<g id="g262">
							<path id="path264" inkscape:connector-curvature="0" clip-path="url(#SVGID_20_)" fill-opacity="0.25" d="M-214.118,162.801
								h350.879V25.379h-350.879V162.801z"/>
						</g>
					</g>
				</g>
			</mask>
			<g id="g266" mask="url(#mask258)">
				<g id="g268">
				</g>
				<g id="g290">
					<g>
						<defs>
							<rect id="SVGID_21_" x="-297.448" y="-0.207" width="550.872" height="210.763"/>
						</defs>
						<clipPath id="SVGID_22_">
							<use xlink:href="#SVGID_21_"  overflow="visible"/>
						</clipPath>
					</g>
				</g>
			</g>
		</g>
	</g>
</g>
</svg>
