<?xml version="1.0" encoding="utf-8"?>
<!-- Generator: Adobe Illustrator 24.0.2, SVG Export Plug-In . SVG Version: 6.00 Build 0)  -->
<svg version="1.1" id="图层_1" xmlns="http://www.w3.org/2000/svg" xmlns:xlink="http://www.w3.org/1999/xlink" x="0px" y="0px"
	 viewBox="0 0 125.482 53.432" enable-background="new 0 0 125.482 53.432" xml:space="preserve">
<g>
	<text transform="matrix(1 0 0 1 40.1989 24.8459)"><tspan x="0" y="0" fill="#FFFFFF" font-family="'SegoePro'" font-size="7.36px">D</tspan><tspan x="3.695" y="0" fill="#FFFFFF" font-family="'SegoePro'" font-size="7.36px">o</tspan></text>
	<text transform="matrix(1 0 0 1 49.0534 24.8459)" fill="#FFFFFF" font-family="'SegoePro'" font-size="7.36px">w</text>
	<text transform="matrix(1 0 0 1 54.3009 24.8459)" fill="#FFFFFF" font-family="'SegoePro'" font-size="7.36px">n</text>
	<text transform="matrix(1 0 0 1 58.3341 24.8459)"><tspan x="0" y="0" fill="#FFFFFF" font-family="'SegoePro'" font-size="7.36px">l</tspan><tspan x="3.651" y="0" fill="#FFFFFF" font-family="'SegoePro'" font-size="7.36px">o</tspan></text>
	<text transform="matrix(1 0 0 1 64.0822 24.8459)" fill="#FFFFFF" font-family="'SegoePro'" font-size="7.36px">a</text>
	<text transform="matrix(1 0 0 1 67.6295 24.8459)" fill="#FFFFFF" font-family="'SegoePro'" font-size="7.36px">d</text>
	<text transform="matrix(1 0 0 1 71.7809 24.8459)" fill="#FFFFFF" font-family="'SegoePro'" font-size="7.36px"> </text>
	<text transform="matrix(1 0 0 1 73.194 24.8459)" fill="#FFFFFF" font-family="'SegoePro'" font-size="7.36px">f</text>
	<text transform="matrix(1 0 0 1 75.3576 24.8459)" fill="#FFFFFF" font-family="'SegoePro'" font-size="7.36px">r</text>
	<text transform="matrix(1 0 0 1 77.6247 24.8459)"><tspan x="0" y="0" fill="#FFFFFF" font-family="'SegoePro'" font-size="7.36px">o</tspan><tspan x="3.658" y="0" fill="#FFFFFF" font-family="'SegoePro'" font-size="7.36px">m</tspan></text>
	<polyline fill="#108239" points="112.626,40.467 112.626,14.866 14.066,14.866 14.066,40.467 	"/>
	<g>
		<defs>
			<polyline id="SVGID_1_" points="112.626,40.467 112.626,14.866 14.066,14.866 14.066,40.467 			"/>
		</defs>
		<clipPath id="SVGID_2_">
			<use xlink:href="#SVGID_1_"  overflow="visible"/>
		</clipPath>
		<path clip-path="url(#SVGID_2_)" fill="#FFFFFF" d="M26.955,19.706c0.032,0.142,0.05,0.317,0.054,0.523
			c-0.736,0.317-1.02,0.546-1.007,1.637v0.669l-0.504,0.101v-0.774C25.498,20.255,26.113,20.002,26.955,19.706 M28.421,19.361
			c0.034,0.155,0.061,0.325,0.078,0.506c1.319-0.188,1.293,0.355,1.293,1.49v0.42l0.499-0.102v-0.317
			C30.291,19.595,30.017,19.123,28.421,19.361 M23.226,23.091v-2.318c-0.016-1.437,0.725-1.877,2.096-2.199
			c2.062-0.483,2.194,0.848,2.194,1.694v1.965l0.504-0.101v-1.82c-0.005-1.602-0.504-2.802-2.8-2.281
			c-1.236,0.281-2.498,0.597-2.498,2.695v2.466L23.226,23.091z M29.27,29.186h-3.883v-2.809l3.883-0.569V29.186z M29.27,33.154
			l-3.883-0.566v-3.016h3.883V33.154z M25,29.186h-3.08v-2.352L25,26.398V29.186z M25,32.564l-3.08-0.434v-2.558H25V32.564z
			 M32.816,21.781l-13.88,2.776v10.094l13.88,2.775l2.774-1.008V22.791L32.816,21.781z"/>
	</g>
	<text transform="matrix(1 0 0 1 40.1989 24.8459)"><tspan x="0" y="0" fill="#FFFFFF" font-family="'SegoePro'" font-size="7.36px">D</tspan><tspan x="3.695" y="0" fill="#FFFFFF" font-family="'SegoePro'" font-size="7.36px">o</tspan></text>
	<text transform="matrix(1 0 0 1 49.0534 24.8459)" fill="#FFFFFF" font-family="'SegoePro'" font-size="7.36px">w</text>
	<text transform="matrix(1 0 0 1 54.3009 24.8459)" fill="#FFFFFF" font-family="'SegoePro'" font-size="7.36px">n</text>
	<text transform="matrix(1 0 0 1 58.3341 24.8459)"><tspan x="0" y="0" fill="#FFFFFF" font-family="'SegoePro'" font-size="7.36px">l</tspan><tspan x="3.651" y="0" fill="#FFFFFF" font-family="'SegoePro'" font-size="7.36px">o</tspan></text>
	<text transform="matrix(1 0 0 1 64.0822 24.8459)" fill="#FFFFFF" font-family="'SegoePro'" font-size="7.36px">a</text>
	<text transform="matrix(1 0 0 1 67.6295 24.8459)" fill="#FFFFFF" font-family="'SegoePro'" font-size="7.36px">d</text>
	<text transform="matrix(1 0 0 1 71.7809 24.8459)" fill="#FFFFFF" font-family="'SegoePro'" font-size="7.36px"> </text>
	<text transform="matrix(1 0 0 1 73.194 24.8459)" fill="#FFFFFF" font-family="'SegoePro'" font-size="7.36px">f</text>
	<text transform="matrix(1 0 0 1 75.3576 24.8459)" fill="#FFFFFF" font-family="'SegoePro'" font-size="7.36px">r</text>
	<text transform="matrix(1 0 0 1 77.6247 24.8459)"><tspan x="0" y="0" fill="#FFFFFF" font-family="'SegoePro'" font-size="7.36px">o</tspan><tspan x="3.658" y="0" fill="#FFFFFF" font-family="'SegoePro'" font-size="7.36px">m</tspan></text>
	<polyline fill="#12100B" points="112.626,40.467 112.626,14.866 14.066,14.866 14.066,40.467 	"/>
	<g>
		<defs>
			<polyline id="SVGID_3_" points="112.626,40.467 112.626,14.866 14.066,14.866 14.066,40.467 			"/>
		</defs>
		<clipPath id="SVGID_4_">
			<use xlink:href="#SVGID_3_"  overflow="visible"/>
		</clipPath>
		<path clip-path="url(#SVGID_4_)" fill="#FFFFFF" d="M26.955,19.706c0.032,0.142,0.05,0.317,0.054,0.523
			c-0.736,0.317-1.02,0.546-1.007,1.637v0.669l-0.504,0.101v-0.774C25.498,20.255,26.113,20.002,26.955,19.706 M28.421,19.361
			c0.034,0.155,0.061,0.325,0.078,0.506c1.319-0.188,1.293,0.355,1.293,1.49v0.42l0.499-0.102v-0.317
			C30.291,19.595,30.017,19.123,28.421,19.361 M23.226,23.091v-2.318c-0.016-1.437,0.725-1.877,2.096-2.199
			c2.062-0.483,2.194,0.848,2.194,1.694v1.965l0.504-0.101v-1.82c-0.005-1.602-0.504-2.802-2.8-2.281
			c-1.236,0.281-2.498,0.597-2.498,2.695v2.466L23.226,23.091z M29.27,29.186h-3.883v-2.809l3.883-0.569V29.186z M29.27,33.154
			l-3.883-0.566v-3.016h3.883V33.154z M25,29.186h-3.08v-2.352L25,26.398V29.186z M25,32.564l-3.08-0.434v-2.558H25V32.564z
			 M32.816,21.781l-13.88,2.776v10.094l13.88,2.775l2.774-1.008V22.791L32.816,21.781z"/>
		<path clip-path="url(#SVGID_4_)" fill="#FFFFFF" d="M45.007,22.157c0,0.516-0.113,0.972-0.34,1.367
			c-0.226,0.395-0.548,0.699-0.965,0.913c-0.418,0.213-0.896,0.319-1.433,0.319h-1.341v-5.073h1.401
			C44.114,19.684,45.007,20.507,45.007,22.157 M44.385,22.171c0-1.3-0.69-1.949-2.07-1.949h-0.793v3.998h0.754
			c0.67,0,1.189-0.179,1.556-0.536C44.201,23.326,44.385,22.822,44.385,22.171 M49.221,22.933c0,0.574-0.163,1.038-0.49,1.388
			c-0.327,0.35-0.765,0.526-1.314,0.526c-0.536,0-0.963-0.172-1.283-0.513c-0.319-0.341-0.479-0.79-0.479-1.347
			c0-0.598,0.164-1.072,0.491-1.419c0.328-0.348,0.78-0.523,1.356-0.523c0.538,0,0.959,0.167,1.263,0.503
			C49.069,21.887,49.221,22.347,49.221,22.933 M48.627,22.953c0-0.455-0.101-0.805-0.303-1.048c-0.201-0.243-0.49-0.364-0.865-0.364
			c-0.372,0-0.667,0.124-0.884,0.373c-0.217,0.249-0.326,0.601-0.326,1.052c0,0.436,0.109,0.773,0.327,1.019
			c0.219,0.244,0.513,0.366,0.883,0.366c0.378,0,0.666-0.12,0.867-0.36C48.527,23.749,48.627,23.403,48.627,22.953 M54.684,21.134
			l-1.086,3.623h-0.602l-0.747-2.594c-0.025-0.089-0.044-0.2-0.056-0.332h-0.014c-0.007,0.082-0.032,0.191-0.074,0.326l-0.81,2.6
			h-0.58l-1.093-3.623h0.609l0.746,2.725c0.024,0.095,0.04,0.203,0.05,0.326h0.028c0.004-0.089,0.027-0.201,0.067-0.333l0.831-2.718
			h0.532l0.753,2.731c0.024,0.093,0.04,0.201,0.049,0.326h0.028c0.006-0.113,0.024-0.221,0.057-0.326l0.74-2.731H54.684z
			 M58.367,24.757h-0.58V22.69c0-0.767-0.281-1.149-0.842-1.149c-0.286,0-0.525,0.108-0.717,0.323
			c-0.192,0.216-0.288,0.492-0.288,0.826v2.066H55.36v-3.623h0.579v0.602h0.014c0.272-0.46,0.668-0.69,1.189-0.69
			c0.399,0,0.702,0.129,0.911,0.39c0.209,0.259,0.313,0.627,0.313,1.103V24.757z M60.041,24.757h-0.58v-5.363h0.58V24.757z
			 M64.506,22.933c0,0.574-0.164,1.038-0.49,1.388c-0.327,0.35-0.765,0.526-1.315,0.526c-0.535,0-0.963-0.172-1.282-0.513
			c-0.32-0.341-0.48-0.79-0.48-1.347c0-0.598,0.164-1.072,0.492-1.419c0.328-0.348,0.78-0.523,1.355-0.523
			c0.539,0,0.959,0.167,1.264,0.503C64.354,21.887,64.506,22.347,64.506,22.933 M63.912,22.953c0-0.455-0.102-0.805-0.303-1.048
			c-0.202-0.243-0.49-0.364-0.865-0.364c-0.373,0-0.668,0.124-0.885,0.373c-0.216,0.249-0.325,0.601-0.325,1.052
			c0,0.436,0.109,0.773,0.327,1.019c0.218,0.244,0.513,0.366,0.883,0.366c0.377,0,0.666-0.12,0.867-0.36
			C63.811,23.749,63.912,23.403,63.912,22.953 M67.97,24.757h-0.58v-0.565h-0.014c-0.253,0.436-0.625,0.655-1.115,0.655
			c-0.349,0-0.629-0.096-0.838-0.285c-0.21-0.191-0.315-0.446-0.315-0.768c0-0.674,0.398-1.067,1.195-1.182l1.087-0.151
			c0-0.612-0.249-0.92-0.747-0.92c-0.436,0-0.83,0.148-1.181,0.442V21.39c0.105-0.081,0.287-0.158,0.544-0.232
			c0.258-0.074,0.486-0.111,0.687-0.111c0.851,0,1.277,0.451,1.277,1.355V24.757z M67.39,22.925l-0.878,0.123
			c-0.299,0.042-0.509,0.114-0.629,0.215c-0.121,0.1-0.181,0.262-0.181,0.486c0,0.182,0.065,0.327,0.195,0.437
			c0.129,0.109,0.295,0.165,0.498,0.165c0.288,0,0.526-0.102,0.713-0.305c0.188-0.202,0.282-0.456,0.282-0.761V22.925z
			 M72.127,24.757h-0.58v-0.615h-0.014c-0.269,0.469-0.685,0.705-1.246,0.705c-0.457,0-0.822-0.165-1.093-0.494
			c-0.271-0.329-0.407-0.77-0.407-1.318c0-0.6,0.151-1.08,0.451-1.444c0.301-0.362,0.704-0.544,1.209-0.544
			c0.495,0,0.857,0.195,1.086,0.587h0.014v-2.239h0.58V24.757z M71.547,23.119v-0.535c0-0.299-0.099-0.548-0.299-0.746
			c-0.199-0.197-0.442-0.297-0.727-0.297c-0.349,0-0.626,0.129-0.832,0.388c-0.204,0.258-0.307,0.616-0.307,1.073
			c0,0.415,0.096,0.744,0.29,0.986c0.193,0.242,0.454,0.362,0.782,0.362c0.318,0,0.58-0.115,0.786-0.348
			C71.444,23.773,71.547,23.479,71.547,23.119 M76.78,19.903c-0.113-0.064-0.242-0.096-0.386-0.096
			c-0.405,0-0.608,0.256-0.608,0.768v0.559h0.849v0.491h-0.849v3.132h-0.58v-3.132H74.59v-0.491h0.616v-0.588
			c0-0.366,0.108-0.665,0.325-0.891c0.217-0.227,0.493-0.34,0.828-0.34c0.177,0,0.317,0.021,0.421,0.063V19.903z M79.147,21.722
			c-0.104-0.078-0.251-0.117-0.443-0.117c-0.257,0-0.465,0.121-0.625,0.362c-0.161,0.242-0.241,0.557-0.241,0.943v1.847h-0.581
			v-3.623h0.581v0.747h0.014c0.08-0.25,0.204-0.447,0.371-0.593c0.168-0.145,0.36-0.218,0.577-0.218
			c0.151,0,0.267,0.017,0.347,0.049V21.722z M82.977,22.933c0,0.574-0.164,1.038-0.49,1.388c-0.327,0.35-0.765,0.526-1.315,0.526
			c-0.535,0-0.963-0.172-1.282-0.513c-0.32-0.341-0.48-0.79-0.48-1.347c0-0.598,0.164-1.072,0.492-1.419
			c0.328-0.348,0.78-0.523,1.355-0.523c0.538,0,0.959,0.167,1.264,0.503C82.825,21.887,82.977,22.347,82.977,22.933 M82.383,22.953
			c0-0.455-0.102-0.805-0.303-1.048c-0.202-0.243-0.49-0.364-0.865-0.364c-0.373,0-0.668,0.124-0.885,0.373
			c-0.217,0.249-0.326,0.601-0.326,1.052c0,0.436,0.11,0.773,0.328,1.019c0.218,0.244,0.513,0.366,0.883,0.366
			c0.377,0,0.666-0.12,0.867-0.36C82.282,23.749,82.383,23.403,82.383,22.953 M89.02,24.757h-0.58v-2.081
			c0-0.404-0.062-0.695-0.186-0.87c-0.124-0.177-0.332-0.265-0.625-0.265c-0.247,0-0.458,0.113-0.631,0.34
			c-0.173,0.226-0.26,0.496-0.26,0.809v2.066h-0.581v-2.15c0-0.71-0.274-1.065-0.824-1.065c-0.255,0-0.465,0.107-0.63,0.32
			c-0.165,0.214-0.247,0.49-0.247,0.829v2.066h-0.581v-3.623h0.581v0.573h0.014c0.257-0.44,0.631-0.661,1.122-0.661
			c0.235,0,0.448,0.066,0.636,0.198c0.189,0.132,0.32,0.317,0.393,0.555c0.269-0.502,0.67-0.753,1.203-0.753
			c0.797,0,1.196,0.492,1.196,1.479V24.757z"/>
		<path clip-path="url(#SVGID_4_)" fill="#FFFFFF" d="M50.212,28.015l-2.135,7.557H47.04l-1.556-5.527
			c-0.059-0.208-0.097-0.463-0.115-0.764h-0.021c-0.028,0.259-0.076,0.511-0.142,0.754l-1.566,5.537h-1.027l-2.208-7.557h0.969
			l1.608,5.797c0.067,0.256,0.11,0.51,0.131,0.759h0.022c0.016-0.215,0.07-0.467,0.158-0.759l1.676-5.797h0.853l1.597,5.839
			c0.06,0.218,0.102,0.452,0.126,0.701h0.021c0.017-0.184,0.065-0.424,0.143-0.722l1.544-5.818H50.212z M51.927,28.4
			c0,0.162-0.056,0.297-0.169,0.403c-0.113,0.107-0.245,0.16-0.401,0.16c-0.158,0-0.291-0.052-0.4-0.154
			c-0.109-0.106-0.164-0.241-0.164-0.409c0-0.151,0.055-0.282,0.162-0.394c0.107-0.109,0.241-0.166,0.402-0.166
			c0.162,0,0.297,0.056,0.407,0.164C51.872,28.114,51.927,28.245,51.927,28.4 M51.779,35.571h-0.865v-5.396h0.865V35.571z
			 M57.567,35.571h-0.865v-3.077c0-1.142-0.418-1.714-1.253-1.714c-0.426,0-0.782,0.162-1.068,0.483
			c-0.287,0.32-0.43,0.731-0.43,1.23v3.077h-0.863v-5.396h0.863v0.896h0.021c0.405-0.685,0.994-1.027,1.771-1.027
			c0.594,0,1.046,0.193,1.357,0.579c0.311,0.388,0.467,0.935,0.467,1.645V35.571z M63.563,35.571h-0.864v-0.917h-0.02
			c-0.401,0.7-1.019,1.049-1.855,1.049c-0.682,0-1.225-0.245-1.629-0.734c-0.403-0.49-0.605-1.145-0.605-1.963
			c0-0.892,0.224-1.609,0.672-2.15c0.447-0.54,1.047-0.812,1.799-0.812c0.737,0,1.277,0.291,1.618,0.874h0.02v-3.336h0.864V35.571z
			 M62.699,33.131v-0.795c0-0.445-0.148-0.815-0.445-1.112c-0.297-0.295-0.657-0.443-1.082-0.443c-0.52,0-0.933,0.193-1.238,0.578
			c-0.306,0.384-0.46,0.917-0.46,1.6c0,0.618,0.145,1.107,0.433,1.467c0.288,0.361,0.676,0.54,1.165,0.54
			c0.473,0,0.864-0.172,1.169-0.517C62.548,34.106,62.699,33.666,62.699,33.131 M69.945,32.853c0,0.857-0.243,1.547-0.731,2.068
			c-0.486,0.523-1.139,0.782-1.957,0.782c-0.797,0-1.434-0.254-1.911-0.761c-0.476-0.508-0.713-1.176-0.713-2.005
			c0-0.894,0.244-1.599,0.733-2.116c0.488-0.519,1.16-0.777,2.018-0.777c0.8,0,1.427,0.25,1.881,0.751
			C69.718,31.295,69.945,31.981,69.945,32.853 M69.059,32.884c0-0.678-0.15-1.196-0.45-1.56c-0.301-0.362-0.73-0.544-1.289-0.544
			c-0.555,0-0.994,0.187-1.317,0.557c-0.323,0.371-0.485,0.894-0.485,1.568c0,0.647,0.163,1.151,0.488,1.514
			c0.324,0.364,0.763,0.546,1.314,0.546c0.561,0,0.993-0.179,1.291-0.536C68.91,34.069,69.059,33.555,69.059,32.884 M77.811,30.175
			l-1.618,5.396h-0.896l-1.111-3.862c-0.038-0.134-0.067-0.299-0.084-0.495H74.08c-0.011,0.123-0.047,0.284-0.11,0.484l-1.207,3.873
			h-0.864l-1.629-5.396h0.907l1.111,4.059c0.035,0.14,0.06,0.303,0.074,0.485h0.042c0.007-0.134,0.04-0.3,0.1-0.496l1.239-4.048
			h0.79l1.122,4.068c0.034,0.137,0.06,0.299,0.073,0.485h0.042c0.008-0.168,0.036-0.33,0.085-0.485l1.101-4.068H77.811z
			 M81.493,34.127c0,0.468-0.18,0.848-0.54,1.14c-0.36,0.291-0.839,0.437-1.435,0.437c-0.51,0-0.956-0.108-1.339-0.327v-0.928
			c0.424,0.345,0.892,0.517,1.402,0.517c0.684,0,1.028-0.25,1.028-0.753c0-0.204-0.067-0.37-0.201-0.498
			c-0.134-0.128-0.438-0.301-0.912-0.519c-0.477-0.204-0.815-0.422-1.012-0.656c-0.197-0.233-0.295-0.544-0.295-0.931
			c0-0.445,0.18-0.818,0.538-1.117c0.358-0.298,0.813-0.447,1.365-0.447c0.425,0,0.809,0.084,1.154,0.253v0.869
			c-0.352-0.256-0.758-0.386-1.222-0.386c-0.286,0-0.514,0.071-0.688,0.212c-0.175,0.14-0.262,0.322-0.262,0.543
			c0,0.239,0.068,0.422,0.201,0.551c0.134,0.127,0.409,0.28,0.827,0.454c0.513,0.219,0.873,0.447,1.08,0.688
			C81.389,33.465,81.493,33.767,81.493,34.127"/>
		<path clip-path="url(#SVGID_4_)" fill="#FFFFFF" d="M89.184,33.665c0,0.635-0.225,1.134-0.675,1.496
			c-0.449,0.361-1.06,0.543-1.833,0.543c-0.281,0-0.599-0.047-0.951-0.14c-0.354-0.093-0.604-0.192-0.752-0.292v-1.049
			c0.215,0.193,0.496,0.355,0.846,0.484c0.35,0.13,0.676,0.195,0.978,0.195c0.97,0,1.454-0.378,1.454-1.134
			c0-0.316-0.103-0.587-0.311-0.814c-0.207-0.226-0.632-0.524-1.275-0.893c-0.622-0.352-1.058-0.686-1.307-1.001
			c-0.25-0.317-0.375-0.701-0.375-1.154c0-0.598,0.224-1.083,0.67-1.457c0.447-0.375,1.023-0.561,1.729-0.561
			c0.678,0,1.173,0.088,1.486,0.268v0.99c-0.393-0.309-0.905-0.463-1.534-0.463c-0.418,0-0.759,0.104-1.024,0.313
			c-0.266,0.209-0.399,0.485-0.399,0.83c0,0.249,0.04,0.45,0.119,0.601c0.079,0.151,0.212,0.301,0.401,0.448
			c0.188,0.147,0.504,0.347,0.951,0.596c0.667,0.372,1.135,0.724,1.402,1.054C89.05,32.856,89.184,33.236,89.184,33.665
			 M92.755,35.52c-0.207,0.116-0.478,0.174-0.812,0.174c-0.941,0-1.412-0.53-1.412-1.591v-3.194h-0.927v-0.732h0.927v-1.317
			l0.865-0.279v1.597h1.359v0.732h-1.359v3.046c0,0.362,0.061,0.619,0.184,0.772c0.123,0.152,0.328,0.229,0.616,0.229
			c0.214,0,0.401-0.057,0.559-0.174V35.52z M98.713,32.853c0,0.857-0.243,1.547-0.73,2.068c-0.486,0.522-1.139,0.783-1.958,0.783
			c-0.797,0-1.434-0.254-1.91-0.762c-0.476-0.508-0.714-1.176-0.714-2.005c0-0.893,0.244-1.599,0.733-2.115
			c0.488-0.519,1.161-0.778,2.018-0.778c0.801,0,1.428,0.25,1.882,0.751C98.487,31.295,98.713,31.981,98.713,32.853 M97.828,32.884
			c0-0.677-0.151-1.197-0.451-1.559c-0.3-0.363-0.73-0.544-1.288-0.544c-0.556,0-0.995,0.186-1.318,0.556
			c-0.323,0.371-0.484,0.894-0.484,1.568c0,0.647,0.161,1.152,0.487,1.516c0.325,0.363,0.763,0.545,1.315,0.545
			c0.561,0,0.992-0.179,1.291-0.537C97.679,34.07,97.828,33.556,97.828,32.884 M102.434,31.05c-0.155-0.115-0.374-0.173-0.659-0.173
			c-0.383,0-0.694,0.181-0.932,0.539c-0.24,0.361-0.359,0.829-0.359,1.405v2.751H99.62v-5.396h0.864v1.112h0.021
			c0.119-0.373,0.304-0.667,0.553-0.884c0.25-0.215,0.537-0.323,0.859-0.323c0.226,0,0.398,0.024,0.517,0.074V31.05z M107.64,33.09
			h-3.81c0.014,0.608,0.175,1.072,0.482,1.395c0.308,0.321,0.734,0.481,1.278,0.481c0.611,0,1.168-0.195,1.671-0.59v0.807
			c-0.471,0.348-1.096,0.521-1.876,0.521c-0.77,0-1.37-0.249-1.803-0.746c-0.432-0.497-0.648-1.185-0.648-2.062
			c0-0.534,0.108-1.023,0.324-1.462c0.216-0.442,0.514-0.784,0.893-1.025c0.38-0.243,0.802-0.364,1.265-0.364
			c0.7,0,1.245,0.228,1.637,0.683c0.391,0.455,0.587,1.092,0.587,1.911V33.09z M106.755,32.357
			c-0.007-0.499-0.127-0.886-0.361-1.162c-0.234-0.275-0.563-0.414-0.988-0.414c-0.401,0-0.744,0.145-1.028,0.433
			c-0.285,0.288-0.463,0.669-0.538,1.143H106.755z"/>
	</g>
</g>
</svg>
